<?xml version="1.0" standalone="no"?>
<!DOCTYPE svg PUBLIC "-//W3C//DTD SVG 20010904//EN"
 "http://www.w3.org/TR/2001/REC-SVG-20010904/DTD/svg10.dtd">
<svg version="1.0" xmlns="http://www.w3.org/2000/svg"
 width="16.000000pt" height="16.000000pt" viewBox="0 0 16.000000 16.000000"
 preserveAspectRatio="xMidYMid meet">
<metadata>
Created by potrace 1.11, written by Peter Selinger 2001-2013
</metadata>
<g transform="translate(0.000000,16.000000) scale(0.003125,-0.003125)"
fill="#000000" stroke="none">
<path d="M1880 4778 l-25 -11 33 -7 c18 -4 44 -18 57 -30 67 -63 28 -156 -139
-338 -92 -100 -177 -217 -206 -283 -27 -63 -37 -162 -21 -212 6 -19 23 -45 37
-58 l25 -23 -22 49 c-44 100 -19 217 74 348 45 63 203 237 215 237 4 0 8 -14
8 -32 1 -21 10 -39 28 -55 47 -40 103 -27 132 30 16 29 41 56 55 57 3 0 14 -6
24 -14 19 -13 18 -15 -9 -56 -22 -33 -25 -44 -15 -56 16 -19 28 -18 22 4 -2
10 6 27 22 42 32 30 50 92 35 120 -18 35 -68 53 -126 47 l-52 -5 14 26 c56
108 -63 266 -166 220z"/>
<path d="M1695 4689 c-22 -17 -40 -34 -40 -37 0 -4 4 -37 9 -74 9 -77 -10
-193 -49 -310 -13 -40 -23 -74 -21 -76 6 -6 71 98 110 176 44 86 66 163 66
225 0 50 -18 128 -29 126 -3 0 -24 -14 -46 -30z"/>
<path d="M1099 3994 c-12 -12 -21 -13 -44 -4 -35 13 -88 4 -120 -22 -19 -14
-25 -29 -25 -56 0 -38 32 -102 50 -102 5 0 10 -4 10 -10 0 -5 -12 -10 -27 -10
-49 0 -106 -41 -136 -98 -32 -58 -31 -92 4 -137 27 -33 40 -32 27 3 -24 62 24
127 100 138 61 9 167 -1 292 -27 151 -31 385 -33 450 -3 62 29 108 70 125 111
24 58 17 60 -21 6 -28 -40 -48 -57 -97 -79 -54 -24 -78 -28 -179 -32 -98 -4
-138 0 -255 23 -76 15 -140 29 -142 31 -2 2 11 15 28 29 25 21 31 35 31 64 0
53 -26 74 -96 76 -60 2 -78 13 -72 41 2 15 14 20 55 22 42 2 53 7 58 23 9 27
2 32 -16 13z"/>
<path d="M1740 3960 c-24 -8 -24 -8 6 -9 78 -3 136 -31 204 -99 36 -37 78 -92
95 -122 28 -52 126 -302 121 -308 -2 -1 -17 3 -35 9 -87 31 -156 -54 -100
-125 26 -33 23 -80 -6 -84 -14 -2 -26 9 -43 38 -22 39 -44 51 -57 30 -3 -5 -1
-10 5 -10 6 0 19 -20 29 -43 23 -52 63 -87 102 -87 36 0 85 42 99 85 6 19 14
35 17 35 3 0 14 -11 24 -24 41 -53 155 -74 219 -41 31 16 60 61 60 92 0 16 -2
16 -18 -3 -39 -49 -99 -57 -153 -21 -46 30 -89 106 -145 251 -108 280 -188
392 -307 429 -58 18 -78 19 -117 7z"/>
<path d="M3362 3930 c-125 -45 -310 -206 -450 -392 -157 -210 -406 -611 -596
-959 l-57 -106 -139 -11 c-83 -7 -151 -17 -168 -26 -36 -19 -86 -74 -112 -126
-31 -60 -23 -71 10 -14 40 70 79 100 147 115 56 11 225 28 231 23 2 -1 -42
-87 -99 -191 -488 -897 -703 -1226 -994 -1518 -179 -180 -367 -317 -515 -375
l-53 -21 -30 28 c-16 15 -39 48 -50 73 -11 25 -22 39 -24 33 -6 -17 15 -80 38
-119 l19 -32 -77 -18 c-47 -11 -117 -18 -178 -18 -108 -1 -161 15 -232 70
l-33 25 0 -26 c0 -14 11 -37 25 -51 81 -81 255 -93 456 -34 l66 20 54 -25 c71
-32 146 -40 253 -26 266 36 534 197 854 514 387 382 694 829 1136 1650 l26 47
165 0 c91 0 165 -2 165 -5 0 -2 -63 -114 -140 -247 -77 -133 -140 -249 -140
-258 0 -21 35 -54 48 -46 5 3 33 47 62 98 130 228 220 339 323 398 66 38 114
39 156 5 l30 -26 30 45 c35 50 39 71 15 80 -61 23 -158 -17 -284 -119 -44 -35
-80 -63 -80 -60 0 2 16 31 35 64 41 69 43 94 13 115 -19 14 -24 14 -38 1 -13
-12 -50 -15 -178 -15 -89 0 -162 4 -162 8 0 22 436 847 513 972 57 91 124 178
153 196 13 9 24 22 24 29 0 20 98 94 170 129 57 27 76 31 150 31 63 0 93 -5
118 -18 43 -23 66 -75 57 -128 -4 -25 -3 -39 4 -39 11 0 15 18 31 145 9 72 9
82 -8 105 -36 48 -119 62 -209 35 -59 -18 -176 -92 -251 -160 -29 -26 -54 -46
-56 -44 -2 2 2 36 7 76 10 66 9 74 -9 94 -45 51 -131 62 -222 29z m100 -101
c57 -15 88 -47 94 -94 4 -38 1 -45 -72 -130 -136 -160 -414 -596 -623 -977
l-86 -158 -202 0 c-112 0 -203 3 -203 7 0 27 470 905 548 1023 71 108 206 248
273 285 93 50 192 67 271 44z m-1038 -1426 c-20 -21 -49 -64 -66 -96 -37 -73
-21 -67 22 9 37 65 77 88 186 103 69 10 184 20 184 15 0 -5 -292 -537 -387
-704 -280 -493 -480 -775 -722 -1017 -286 -286 -577 -436 -851 -437 -88 -1
-170 15 -170 33 0 4 26 19 57 35 321 157 751 596 1118 1141 137 204 416 679
524 893 l31 62 56 0 55 0 -37 -37z"/>
<path d="M2090 3790 c35 -68 131 -201 180 -250 30 -30 80 -67 110 -82 56 -27
109 -39 110 -25 0 4 0 27 0 51 l0 43 -59 22 c-82 30 -170 91 -270 186 -46 44
-78 69 -71 55z"/>
<path d="M1185 3575 c-81 -14 -177 -60 -218 -103 l-28 -29 52 -22 52 -23 41
32 c78 59 219 114 360 139 33 6 62 13 64 16 11 10 -256 3 -323 -10z"/>
<path d="M909 3087 c-209 -71 -341 -309 -274 -495 10 -28 50 -93 88 -144 38
-51 78 -113 90 -138 26 -58 26 -142 0 -201 -25 -56 -108 -133 -177 -165 -141
-64 -318 -54 -398 23 -38 36 -62 103 -55 153 3 22 1 40 -4 40 -5 0 -9 -2 -9
-4 0 -2 -11 -48 -25 -102 -14 -53 -24 -103 -21 -110 13 -34 232 -81 324 -69
148 20 220 44 313 106 115 77 190 187 197 290 6 79 -8 113 -97 235 -111 151
-135 202 -139 295 -6 114 33 186 125 229 55 26 155 31 214 12 64 -22 116 -96
103 -148 -3 -13 -2 -24 2 -24 5 0 21 35 36 77 26 72 27 79 12 101 -41 63 -182
81 -305 39z"/>
<path d="M4030 2583 c-34 -6 -58 -29 -65 -63 -5 -23 -13 -29 -47 -34 -142 -23
-323 -195 -401 -381 -51 -122 -45 -194 19 -221 108 -45 286 94 409 321 21 39
39 71 41 73 1 2 14 -9 28 -23 54 -54 157 -71 233 -40 20 8 38 13 40 11 9 -8
-49 -109 -102 -177 -57 -74 -67 -109 -42 -144 8 -10 19 -15 26 -11 6 4 45 64
86 134 41 70 92 146 112 168 64 70 258 234 277 234 22 0 -14 -81 -110 -247
-75 -130 -106 -201 -112 -255 -4 -40 -2 -48 18 -58 39 -21 147 -7 221 28 118
57 258 176 361 310 22 29 38 56 34 60 -4 4 -17 -6 -29 -23 -148 -203 -400
-384 -483 -346 -13 6 -26 21 -29 34 -14 53 69 234 195 431 38 61 70 115 70
122 0 23 -29 38 -53 27 -32 -15 -168 -118 -265 -203 -46 -39 -86 -70 -88 -67
-3 3 20 50 51 105 47 85 55 104 45 121 -6 12 -21 21 -33 21 -18 0 -30 -18 -71
-106 -61 -130 -92 -157 -186 -158 -68 -1 -101 22 -121 82 -16 49 -7 209 14
250 19 35 18 36 -43 25z m-76 -149 c11 -82 7 -122 -19 -180 -59 -133 -206
-314 -268 -329 -55 -14 -62 -6 -62 70 0 62 5 80 43 159 68 142 171 271 247
310 45 24 52 20 59 -30z"/>
<path d="M1706 2565 c-21 -6 -48 -23 -60 -37 -15 -18 -34 -27 -67 -31 -117
-15 -212 -70 -339 -197 -102 -100 -157 -182 -190 -281 -36 -107 -20 -145 57
-136 60 7 141 62 241 165 l83 86 -26 -56 c-14 -31 -31 -80 -37 -110 -14 -65 1
-105 47 -127 58 -28 180 15 300 105 106 78 337 316 322 330 -3 4 -19 -9 -34
-27 -55 -68 -180 -193 -248 -249 -133 -109 -243 -153 -285 -115 -47 43 -7 164
148 453 l77 144 52 -7 c66 -8 72 10 7 20 l-45 6 21 36 c11 20 20 36 18 38 -2
1 -21 -4 -42 -10z m-96 -92 c0 -13 -114 -210 -162 -280 -77 -112 -245 -263
-293 -263 -21 0 -19 38 6 107 66 180 241 384 366 429 41 14 83 18 83 7z"/>
</g>
</svg>
